<?xml version="1.0" standalone="no"?><svg xmlns="http://www.w3.org/2000/svg" viewBox="0 0 1440 320"><path fill="#1c3f7a" fill-opacity="1" d="M0,288L34.3,293.3C68.6,299,137,309,206,282.7C274.3,256,343,192,411,186.7C480,181,549,235,617,234.7C685.7,235,754,181,823,138.7C891.4,96,960,64,1029,74.7C1097.1,85,1166,139,1234,165.3C1302.9,192,1371,192,1406,192L1440,192L1440,320L1405.7,320C1371.4,320,1303,320,1234,320C1165.7,320,1097,320,1029,320C960,320,891,320,823,320C754.3,320,686,320,617,320C548.6,320,480,320,411,320C342.9,320,274,320,206,320C137.1,320,69,320,34,320L0,320Z"></path></svg>