<?xml version="1.0" encoding="UTF-8" standalone="no"?>
<!DOCTYPE svg PUBLIC "-//W3C//DTD SVG 1.1//EN" "http://www.w3.org/Graphics/SVG/1.1/DTD/svg11.dtd">
<svg xmlns="http://www.w3.org/2000/svg" version="1.1" viewBox="0 0 1818 499">
<g stroke-width="2.00" fill="none" stroke-linecap="butt">
<path stroke="#9fc2c3" vector-effect="non-scaling-stroke" d="
  M 600.31 0.00
  L 599.21 0.50"
/>
<path stroke="#ececec" vector-effect="non-scaling-stroke" d="
  M 599.21 0.50
  C 597.29 0.04 599.87 6.68 600.10 7.58
  C 614.97 67.47 611.24 131.93 579.88 186.21
  Q 570.49 202.47 568.31 206.81
  C 551.28 240.81 543.42 278.99 541.23 316.75
  C 537.64 378.34 546.45 440.64 569.50 498.00
  Q 569.92 499.06 571.44 499.00"
/>
<path stroke="#8e9fbc" vector-effect="non-scaling-stroke" d="
  M 317.74 113.36
  C 290.49 97.51 263.24 81.38 235.57 66.27
  Q 221.51 58.59 206.85 62.19
  Q 201.78 63.44 193.34 68.22
  Q 168.04 82.53 142.93 97.19
  Q 142.39 97.50 142.96 97.75
  C 185.37 116.40 222.26 147.23 242.74 189.19
  A 1.08 1.08 -21.1 0 0 244.01 189.75
  C 280.36 179.28 308.44 155.23 330.14 124.96
  A 0.70 0.70 -45.8 0 0 330.13 124.13
  C 326.62 119.30 323.30 116.59 317.74 113.36"
/>
<path stroke="#9fc1c3" vector-effect="non-scaling-stroke" d="
  M 175.17 310.95
  C 200.34 239.53 190.78 155.23 124.98 108.59
  A 1.64 1.63 47.8 0 0 123.23 108.50
  C 118.09 111.44 112.38 114.30 108.36 117.76
  C 98.87 125.94 94.80 136.03 94.70 148.51
  Q 94.37 188.01 94.47 227.51
  Q 94.51 244.54 94.92 247.48
  Q 97.13 263.41 109.51 273.20
  Q 111.96 275.13 126.62 283.53
  Q 150.41 297.14 174.56 311.17
  A 0.42 0.42 25.1 0 0 175.17 310.95"
/>
<path stroke="#9bd0d8" vector-effect="non-scaling-stroke" d="
  M 324.05 272.54
  C 332.99 265.15 338.11 253.93 338.00 242.00
  Q 337.74 213.75 338.18 153.62
  A 0.30 0.23 83.7 0 0 337.88 153.30
  Q 337.72 153.36 337.63 153.59
  C 312.64 223.39 260.91 284.19 199.65 324.49
  Q 198.78 325.06 199.73 325.47
  Q 212.85 331.13 225.58 327.97
  Q 231.09 326.61 242.66 319.98
  Q 275.03 301.44 307.32 282.73
  Q 321.99 274.24 324.05 272.54"
/>
<path stroke="#8e9fbb" vector-effect="non-scaling-stroke" d="
  M 165.3399 359.6465
  A 10.80 9.52 0.3 0 0 154.5898 350.0701
  A 10.80 9.52 0.3 0 0 143.7401 359.5335
  A 10.80 9.52 0.3 0 0 154.4902 369.1099
  A 10.80 9.52 0.3 0 0 165.3399 359.6465"
/>
<path stroke="#8e9fbb" vector-effect="non-scaling-stroke" d="
  M 101.31 421.45
  L 101.25 354.81
  A 0.56 0.55 90.0 0 0 100.70 354.25
  L 81.80 354.31
  A 0.51 0.49 90.0 0 0 81.31 354.82
  L 81.06 436.89
  A 0.61 0.61 -89.8 0 0 81.67 437.50
  L 135.67 437.50
  A 0.64 0.64 -89.5 0 0 136.31 436.87
  Q 136.46 426.87 129.54 423.54
  C 123.51 420.65 109.67 422.02 101.81 421.94
  A 0.50 0.49 0.0 0 1 101.31 421.45"
/>
<path stroke="#8e9fbb" vector-effect="non-scaling-stroke" d="
  M 234.50 411.75
  C 237.17 434.07 259.20 443.53 278.99 436.24
  Q 285.74 433.75 290.43 428.37
  A 0.64 0.61 47.6 0 0 290.45 427.59
  Q 286.80 422.51 282.36 418.10
  A 0.52 0.52 90.0 0 0 281.64 418.10
  C 272.91 426.30 258.23 426.64 254.19 413.24
  A 0.58 0.58 82.2 0 1 254.75 412.50
  Q 270.74 412.54 285.84 412.45
  C 288.41 412.43 291.45 411.56 292.00 409.00
  C 294.73 396.30 287.44 379.33 274.00 375.75
  C 248.73 369.02 231.56 387.17 234.50 411.75"
/>
<path stroke="#8e9fbb" vector-effect="non-scaling-stroke" d="
  M 298.85 394.55
  C 299.57 415.66 334.48 410.90 332.71 421.03
  C 332.29 423.50 330.09 424.98 327.74 425.43
  C 320.14 426.86 318.65 423.43 312.92 420.55
  Q 305.75 416.95 297.58 417.74
  A 0.96 0.96 81.8 0 0 296.73 418.88
  Q 299.12 431.21 310.56 435.94
  C 322.04 440.68 340.79 439.57 348.59 428.52
  C 353.44 421.64 351.80 411.66 345.00 406.29
  C 339.77 402.15 331.24 400.39 324.80 399.02
  C 309.66 395.80 319.57 382.33 330.81 389.44
  Q 339.68 395.04 350.46 394.49
  A 1.18 1.18 -6.6 0 0 351.56 393.10
  Q 349.29 380.32 337.29 376.38
  C 323.58 371.87 298.18 374.93 298.85 394.55"
/>
<path stroke="#8e9fbb" vector-effect="non-scaling-stroke" d="
  M 163.88 388.46
  C 161.98 379.81 154.44 375.19 145.59 375.54
  A 0.61 0.61 -1.0 0 0 145.00 376.15
  L 145.00 436.61
  A 0.88 0.87 -90.0 0 0 145.87 437.49
  L 163.81 437.33
  A 0.51 0.50 -90.0 0 0 164.31 436.82
  Q 164.22 417.70 164.24 398.58
  Q 164.25 390.13 163.88 388.46"
/>
<path stroke="#8e9fbb" vector-effect="non-scaling-stroke" d="
  M 201.36 412.76
  Q 200.95 414.37 200.56 412.75
  Q 197.78 401.06 194.79 389.69
  C 191.65 377.72 182.83 375.25 171.65 375.50
  A 0.60 0.60 -9.3 0 0 171.09 376.28
  L 190.91 436.96
  A 0.71 0.67 80.5 0 0 191.56 437.45
  L 210.43 437.44
  A 0.70 0.69 -80.7 0 0 211.09 436.96
  L 231.17 375.99
  A 0.33 0.32 -79.7 0 0 230.88 375.56
  C 216.59 374.74 209.39 379.77 206.15 393.67
  C 204.37 401.32 202.99 406.48 201.36 412.76"
/>
<path stroke="#3a949d" vector-effect="non-scaling-stroke" d="
  M 605.57 0.27
  Q 614.13 13.72 617.94 23.31
  C 639.85 78.51 629.05 141.27 615.25 196.50
  Q 604.51 239.52 599.75 285.75
  C 593.39 347.62 598.44 414.13 629.94 468.56
  Q 638.87 484.00 652.09 498.87"
/>
<path stroke="#8bafb0" vector-effect="non-scaling-stroke" d="
  M 606.19 499.00
  Q 604.80 499.05 604.28 497.99
  C 557.63 403.07 556.30 293.74 591.85 194.40
  C 601.91 166.31 608.91 142.00 612.37 113.38
  C 616.91 75.92 612.85 38.39 600.56 2.69
  Q 600.33 2.02 599.21 0.50"
/>
<path stroke="#297196" vector-effect="non-scaling-stroke" d="
  M 609.31 0.00
  Q 608.95 0.49 609.35 0.76
  Q 610.03 1.22 610.12 1.33
  C 647.88 49.34 643.30 121.14 631.25 176.87
  C 622.38 217.95 615.68 260.19 614.02 302.24
  C 611.24 372.22 622.60 446.86 675.68 497.69
  C 676.44 498.42 676.25 499.13 677.94 499.00"
/>
<path stroke="#8e9fbc" vector-effect="non-scaling-stroke" d="
  M 1487.16 142.24
  C 1484.12 145.84 1480.74 149.22 1477.57 152.54
  Q 1476.77 153.38 1477.93 153.46
  C 1482.74 153.80 1492.32 154.81 1496.25 152.28
  Q 1505.29 146.45 1514.25 139.73
  Q 1515.23 139.00 1514.01 139.00
  Q 1506.15 139.00 1499.13 139.00
  C 1493.40 139.00 1490.37 138.44 1487.16 142.24"
/>
<path stroke="#8e9fbc" vector-effect="non-scaling-stroke" d="
  M 1057.00 158.25
  C 1040.57 158.37 1027.20 170.35 1029.00 187.25
  C 1030.58 202.07 1041.72 206.92 1054.25 210.00
  Q 1060.75 211.60 1063.94 214.06
  C 1068.01 217.20 1067.81 223.49 1064.57 227.10
  C 1059.70 232.52 1049.19 230.07 1043.75 226.76
  C 1041.15 225.18 1037.41 222.45 1034.30 223.44
  C 1031.10 224.46 1027.46 231.39 1025.88 234.29
  A 1.00 0.99 -56.0 0 0 1026.12 235.53
  C 1045.20 251.23 1082.97 251.69 1085.77 220.00
  Q 1086.86 207.59 1078.21 200.50
  C 1070.19 193.92 1059.28 193.67 1051.19 188.56
  C 1044.51 184.34 1047.80 175.56 1054.82 174.34
  Q 1061.83 173.12 1068.10 176.36
  C 1071.25 177.99 1075.42 181.33 1078.69 177.94
  Q 1081.73 174.78 1084.33 167.48
  A 0.70 0.70 -61.4 0 0 1084.10 166.69
  Q 1072.92 158.14 1057.00 158.25"
/>
<path stroke="#8e9fbc" vector-effect="non-scaling-stroke" d="
  M 1177.00 158.25
  C 1121.29 159.24 1119.03 241.47 1174.25 246.03
  C 1237.35 251.24 1240.95 157.11 1177.00 158.25"
/>
<path stroke="#8e9fbc" vector-effect="non-scaling-stroke" d="
  M 1329.25 158.50
  C 1277.30 163.57 1276.65 239.50 1328.24 245.87
  Q 1344.84 247.92 1358.22 240.16
  C 1378.88 228.18 1384.86 201.58 1374.26 180.86
  C 1365.71 164.14 1347.82 156.69 1329.25 158.50"
/>
<path stroke="#8e9fbc" vector-effect="non-scaling-stroke" d="
  M 1397.19 172.19
  C 1384.62 186.30 1382.83 209.33 1392.56 225.44
  Q 1401.94 240.96 1420.35 245.02
  C 1434.16 248.06 1450.73 245.57 1462.53 237.47
  A 1.53 1.37 -10.5 0 0 1463.11 236.72
  C 1463.85 234.51 1463.25 232.21 1463.25 230.55
  Q 1463.25 216.59 1463.52 201.46
  A 0.94 0.94 -89.4 0 0 1462.58 200.50
  L 1433.26 200.50
  A 0.74 0.71 -0.4 0 0 1432.52 201.22
  L 1432.77 212.02
  Q 1432.84 215.00 1435.73 215.05
  L 1444.27 215.20
  A 0.95 0.86 0.6 0 1 1445.21 216.07
  L 1445.09 227.57
  A 0.79 0.73 -12.0 0 1 1444.60 228.26
  C 1418.34 239.13 1400.49 214.39 1408.75 190.75
  C 1414.83 173.36 1434.31 170.99 1448.63 179.25
  C 1451.68 181.01 1454.97 182.62 1457.31 179.56
  Q 1460.71 175.13 1463.65 170.16
  A 0.63 0.62 36.8 0 0 1463.53 169.37
  C 1445.68 153.76 1413.36 154.01 1397.19 172.19"
/>
<path stroke="#8e9fbc" vector-effect="non-scaling-stroke" d="
  M 764.05 193.19
  L 763.76 159.81
  A 0.81 0.81 89.9 0 0 762.95 159.00
  L 744.35 158.93
  A 0.60 0.59 -0.0 0 0 743.75 159.52
  L 743.75 244.73
  A 0.52 0.51 90.0 0 0 744.26 245.25
  L 763.44 245.19
  A 0.50 0.49 90.0 0 0 763.93 244.69
  L 763.80 209.30
  A 0.52 0.49 -89.5 0 1 764.30 208.78
  L 771.86 209.05
  Q 774.02 209.13 775.43 211.30
  Q 784.31 224.95 793.26 238.54
  C 796.11 242.86 796.70 244.90 802.71 245.11
  Q 811.09 245.40 820.18 245.23
  Q 821.07 245.22 820.58 244.47
  Q 807.90 225.09 795.36 205.66
  Q 792.94 201.90 788.96 199.63
  Q 787.67 198.90 788.99 198.21
  Q 790.90 197.21 792.64 194.88
  Q 805.59 177.53 818.30 159.78
  Q 818.85 159.01 817.91 158.98
  Q 809.00 158.68 799.64 159.34
  C 796.27 159.57 794.21 160.75 792.39 163.40
  Q 783.84 175.92 775.20 188.39
  C 772.22 192.70 769.82 194.67 764.56 193.78
  A 0.60 0.60 4.5 0 1 764.05 193.19"
/>
<path stroke="#8e9fbc" vector-effect="non-scaling-stroke" d="
  M 888.11 192.12
  Q 887.98 190.59 888.93 191.80
  Q 907.20 215.09 925.63 238.23
  C 929.56 243.17 930.43 245.07 936.50 245.25
  Q 941.03 245.38 945.56 245.10
  A 0.55 0.54 -2.3 0 0 946.07 244.56
  L 946.00 159.75
  A 0.52 0.50 -89.4 0 0 945.51 159.23
  L 929.20 158.93
  A 0.51 0.50 0.6 0 0 928.68 159.43
  L 928.51 212.57
  Q 928.50 213.38 928.00 212.75
  L 887.02 161.04
  Q 885.56 159.20 883.54 159.19
  L 871.43 159.15
  A 0.54 0.50 90.0 0 0 870.93 159.69
  L 870.81 244.69
  A 0.50 0.50 0.0 0 0 871.31 245.19
  L 887.95 245.25
  A 0.55 0.55 90.0 0 0 888.50 244.70
  C 888.50 227.32 889.57 209.07 888.11 192.12"
/>
<path stroke="#8e9fbc" vector-effect="non-scaling-stroke" d="
  M 1235.44 159.54
  L 1235.26 244.66
  A 0.79 0.76 0.4 0 0 1236.05 245.43
  L 1286.58 245.25
  A 0.67 0.66 0.0 0 0 1287.25 244.59
  L 1287.25 229.94
  A 0.69 0.69 0.1 0 0 1286.56 229.25
  L 1256.11 229.19
  A 0.62 0.61 90.0 0 1 1255.50 228.57
  L 1255.32 159.69
  A 0.52 0.51 90.0 0 0 1254.81 159.17
  L 1235.96 159.02
  A 0.52 0.51 -89.5 0 0 1235.44 159.54"
/>
<path stroke="#8e9fbc" vector-effect="non-scaling-stroke" d="
  M 1544.43 159.45
  L 1511.22 244.77
  A 0.35 0.35 10.7 0 0 1511.55 245.25
  C 1516.11 245.25 1529.93 246.76 1532.44 242.44
  Q 1534.36 239.12 1538.05 226.66
  A 0.67 0.67 -82.2 0 1 1538.69 226.18
  L 1570.38 226.01
  A 0.87 0.84 80.2 0 1 1571.20 226.61
  Q 1573.26 232.75 1575.51 239.16
  C 1576.86 243.01 1578.32 245.16 1582.50 245.21
  Q 1590.10 245.29 1597.70 245.19
  A 0.35 0.34 79.2 0 0 1598.01 244.72
  L 1565.10 159.64
  A 1.01 1.01 -10.6 0 0 1564.16 159.00
  L 1545.09 159.00
  A 0.72 0.71 -79.0 0 0 1544.43 159.45"
/>
<path stroke="#8e9fbc" vector-effect="non-scaling-stroke" d="
  M 852.50 159.37
  A 0.36 0.36 0.0 0 0 852.14 159.01
  L 832.68 159.01
  A 0.36 0.36 0.0 0 0 832.32 159.37
  L 832.32 244.89
  A 0.36 0.36 0.0 0 0 832.68 245.25
  L 852.14 245.25
  A 0.36 0.36 0.0 0 0 852.50 244.89
  L 852.50 159.37"
/>
<path stroke="#8e9fbc" vector-effect="non-scaling-stroke" d="
  M 982.81 193.95
  L 982.80 175.07
  A 0.51 0.51 0.0 0 1 983.31 174.56
  L 1017.29 174.50
  A 0.63 0.60 0.5 0 0 1017.92 173.91
  L 1018.23 159.72
  A 0.74 0.71 0.4 0 0 1017.49 159.00
  L 963.06 159.00
  A 0.56 0.56 90.0 0 0 962.50 159.56
  L 962.50 244.74
  A 0.51 0.51 0.0 0 0 963.01 245.25
  L 1017.30 245.25
  A 0.93 0.89 -0.6 0 0 1018.23 244.34
  L 1018.00 230.30
  A 0.60 0.57 0.0 0 0 1017.41 229.74
  L 983.43 229.57
  A 0.52 0.51 -90.0 0 1 982.92 229.05
  L 982.76 210.16
  A 0.67 0.66 0.0 0 1 983.43 209.50
  L 1009.24 209.50
  A 0.53 0.50 0.0 0 0 1009.77 209.00
  L 1009.77 195.36
  A 0.91 0.86 -0.0 0 0 1008.86 194.50
  L 983.31 194.44
  A 0.50 0.49 0.0 0 1 982.81 193.95"
/>
<path stroke="#8e9fbc" vector-effect="non-scaling-stroke" d="
  M 1120.25 159.27
  A 0.27 0.27 0.0 0 0 1119.98 159.00
  L 1100.26 159.00
  A 0.27 0.27 0.0 0 0 1099.99 159.27
  L 1099.99 244.97
  A 0.27 0.27 0.0 0 0 1100.26 245.24
  L 1119.98 245.24
  A 0.27 0.27 0.0 0 0 1120.25 244.97
  L 1120.25 159.27"
/>
<path stroke="#8e9fbc" vector-effect="non-scaling-stroke" d="
  M 1499.75 159.26
  A 0.26 0.26 0.0 0 0 1499.49 159.00
  L 1479.79 159.00
  A 0.26 0.26 0.0 0 0 1479.53 159.26
  L 1479.53 245.00
  A 0.26 0.26 0.0 0 0 1479.79 245.26
  L 1499.49 245.26
  A 0.26 0.26 0.0 0 0 1499.75 245.00
  L 1499.75 159.26"
/>
<path stroke="#8e9fbc" vector-effect="non-scaling-stroke" d="
  M 987.94 310.31
  C 970.07 305.10 981.18 290.10 994.51 296.05
  Q 998.61 297.88 1002.62 299.37
  Q 1004.73 300.15 1006.05 298.33
  Q 1009.07 294.17 1011.06 289.46
  A 0.76 0.74 34.0 0 0 1010.89 288.64
  C 998.52 276.55 969.39 277.78 963.40 296.15
  C 960.69 304.44 962.14 313.38 968.30 319.15
  C 974.65 325.10 984.31 325.52 991.85 329.37
  C 996.20 331.60 997.12 337.58 994.30 341.01
  C 988.06 348.60 976.49 341.93 970.09 338.75
  C 965.02 336.22 961.79 344.10 959.59 347.77
  A 1.08 1.07 -55.7 0 0 959.85 349.17
  Q 971.53 358.14 984.93 358.35
  C 996.36 358.53 1006.78 353.58 1010.79 342.57
  C 1015.04 330.90 1011.71 319.32 999.51 314.48
  Q 991.98 311.49 987.94 310.31"
/>
<path stroke="#8e9fbc" vector-effect="non-scaling-stroke" d="
  M 1055.86 310.58
  C 1050.46 335.09 1066.93 357.63 1092.19 358.31
  C 1118.85 359.03 1137.62 339.53 1133.25 312.52
  C 1126.54 271.12 1064.85 269.73 1055.86 310.58"
/>
<path stroke="#8e9fbc" vector-effect="non-scaling-stroke" d="
  M 803.03 315.80
  C 798.27 306.14 792.94 296.36 788.79 286.46
  C 786.39 280.74 782.29 281.50 775.96 281.50
  Q 771.49 281.50 767.06 281.50
  Q 766.61 281.50 766.84 281.89
  L 793.58 327.64
  A 4.88 4.79 30.2 0 1 794.25 330.09
  L 794.25 357.09
  A 0.66 0.66 90.0 0 0 794.91 357.75
  L 811.33 357.75
  A 0.67 0.67 90.0 0 0 812.00 357.08
  Q 812.00 345.68 812.00 334.76
  C 812.00 330.25 811.73 329.30 813.69 325.94
  Q 826.49 303.98 839.14 282.19
  Q 839.54 281.50 838.75 281.50
  Q 831.62 281.50 824.75 281.52
  Q 819.93 281.53 817.50 286.50
  Q 810.35 301.09 803.46 315.80
  Q 803.25 316.25 803.03 315.80"
/>
<path stroke="#8e9fbc" vector-effect="non-scaling-stroke" d="
  M 887.31 328.31
  L 912.06 328.19
  A 0.70 0.69 -0.4 0 0 912.75 327.50
  L 912.75 314.76
  A 0.52 0.51 0.0 0 0 912.23 314.25
  L 887.57 314.19
  A 0.52 0.50 -0.0 0 1 887.05 313.69
  L 887.05 295.81
  A 0.51 0.50 -0.0 0 1 887.56 295.31
  L 917.44 295.25
  A 0.56 0.55 -0.0 0 0 918.00 294.70
  L 918.00 282.00
  A 0.50 0.50 0.0 0 0 917.50 281.50
  L 869.71 281.50
  A 0.61 0.60 -86.8 0 0 869.11 282.04
  Q 868.65 286.12 868.79 289.25
  C 869.28 301.02 868.77 313.90 868.93 324.58
  Q 869.18 340.59 868.74 356.79
  A 0.94 0.93 -89.4 0 0 869.67 357.75
  L 886.24 357.75
  A 0.52 0.51 90.0 0 0 886.75 357.23
  L 886.81 328.81
  A 0.50 0.50 0.0 0 1 887.31 328.31"
/>
<path stroke="#8e9fbc" vector-effect="non-scaling-stroke" d="
  M 948.51 281.77
  A 0.27 0.27 0.0 0 0 948.24 281.50
  L 931.02 281.50
  A 0.27 0.27 0.0 0 0 930.75 281.77
  L 930.75 357.45
  A 0.27 0.27 0.0 0 0 931.02 357.72
  L 948.24 357.72
  A 0.27 0.27 0.0 0 0 948.51 357.45
  L 948.51 281.77"
/>
<path stroke="#8e9fbc" vector-effect="non-scaling-stroke" d="
  M 1042.75 282.08
  A 0.58 0.58 0.0 0 0 1042.17 281.50
  L 1025.33 281.50
  A 0.58 0.58 0.0 0 0 1024.75 282.08
  L 1024.75 357.12
  A 0.58 0.58 0.0 0 0 1025.33 357.70
  L 1042.17 357.70
  A 0.58 0.58 0.0 0 0 1042.75 357.12
  L 1042.75 282.08"
/>
<path stroke="#8e9fbc" vector-effect="non-scaling-stroke" d="
  M 1157.22 296.05
  Q 1157.66 302.37 1157.53 308.69
  C 1157.19 324.79 1157.60 340.90 1157.50 357.01
  A 0.53 0.52 1.8 0 0 1158.00 357.53
  Q 1166.25 358.06 1174.50 357.53
  A 0.54 0.54 -1.1 0 0 1175.01 357.00
  C 1175.33 336.81 1174.37 316.30 1175.41 296.19
  A 0.54 0.52 -88.2 0 1 1175.93 295.68
  L 1196.06 295.56
  A 0.49 0.48 -0.6 0 0 1196.55 295.07
  L 1196.50 282.06
  A 0.56 0.55 90.0 0 0 1195.95 281.50
  L 1136.69 281.50
  A 0.69 0.69 -0.1 0 0 1136.00 282.19
  L 1136.00 294.63
  A 0.89 0.88 0.3 0 0 1136.88 295.51
  L 1156.69 295.56
  A 0.53 0.52 -1.7 0 1 1157.22 296.05"
/>
<path stroke="#8e9fbc" vector-effect="non-scaling-stroke" d="
  M 1223.81 343.44
  L 1223.76 326.76
  A 0.78 0.77 -0.4 0 1 1224.53 325.99
  L 1247.20 325.94
  A 0.50 0.49 -0.0 0 0 1247.70 325.45
  L 1247.75 313.43
  A 0.69 0.68 0.0 0 0 1247.06 312.75
  L 1224.31 312.75
  A 0.56 0.56 -89.8 0 1 1223.75 312.19
  L 1223.75 295.80
  A 0.56 0.55 0.0 0 1 1224.31 295.25
  L 1254.20 295.19
  A 0.55 0.54 -87.1 0 0 1254.74 294.70
  Q 1255.32 288.93 1254.64 282.11
  A 0.69 0.67 86.7 0 0 1253.97 281.50
  L 1206.57 281.56
  A 0.51 0.50 -0.0 0 0 1206.06 282.06
  L 1205.81 356.96
  A 0.78 0.77 89.6 0 0 1206.59 357.74
  L 1254.30 357.57
  A 0.53 0.51 0.0 0 0 1254.83 357.06
  L 1254.75 344.78
  A 0.82 0.78 0.0 0 0 1253.93 344.00
  L 1224.32 343.94
  A 0.51 0.50 0.0 0 1 1223.81 343.44"
/>
<path stroke="#8e9fbc" vector-effect="non-scaling-stroke" d="
  M 1307.67 326.02
  Q 1307.25 325.71 1307.73 325.51
  C 1330.87 315.96 1325.52 283.36 1299.50 282.00
  Q 1284.14 281.20 1267.62 281.52
  A 0.63 0.63 -0.5 0 0 1267.00 282.15
  C 1267.00 304.50 1267.32 326.71 1266.82 348.75
  Q 1266.72 352.97 1267.03 357.18
  A 0.54 0.54 88.3 0 0 1267.57 357.69
  L 1283.95 357.75
  A 0.55 0.55 90.0 0 0 1284.50 357.20
  L 1284.50 330.70
  A 0.99 0.99 85.8 0 1 1285.34 329.72
  C 1289.91 329.01 1292.13 329.18 1294.61 333.37
  Q 1300.63 343.51 1306.29 353.87
  Q 1308.19 357.35 1311.25 357.50
  Q 1319.37 357.91 1328.48 357.73
  A 0.43 0.43 74.2 0 0 1328.84 357.08
  C 1324.39 349.57 1319.70 342.27 1315.44 334.76
  Q 1312.48 329.54 1307.67 326.02"
/>
<path stroke="#8e9fbc" vector-effect="non-scaling-stroke" d="
  M 1385.11 341.03
  L 1390.01 354.36
  Q 1391.15 357.45 1394.23 357.50
  L 1408.51 357.73
  A 0.54 0.53 79.9 0 0 1409.01 357.00
  L 1380.05 282.13
  A 0.99 0.98 -10.3 0 0 1379.13 281.50
  L 1362.33 281.50
  A 0.77 0.74 9.9 0 0 1361.62 281.98
  L 1332.67 357.04
  A 0.38 0.37 12.6 0 0 1333.00 357.54
  C 1337.22 357.90 1349.98 359.19 1351.69 354.19
  Q 1353.95 347.58 1356.38 341.04
  A 0.74 0.72 -79.5 0 1 1357.06 340.56
  L 1384.45 340.56
  A 0.71 0.70 79.9 0 1 1385.11 341.03"
/>
<path stroke="#8e9fbc" vector-effect="non-scaling-stroke" d="
  M 1435.55 332.49
  Q 1438.39 332.11 1441.25 332.23
  C 1459.85 333.00 1475.94 325.87 1474.52 304.02
  C 1473.69 291.31 1463.82 282.86 1451.50 282.00
  Q 1438.10 281.06 1418.06 281.55
  A 0.52 0.51 89.4 0 0 1417.56 282.07
  L 1417.56 357.19
  A 0.51 0.50 0.0 0 0 1418.07 357.69
  L 1434.60 357.75
  A 0.64 0.63 0.0 0 0 1435.24 357.12
  L 1435.08 333.07
  A 0.58 0.55 85.5 0 1 1435.55 332.49"
/>
<path stroke="#8e9fbc" vector-effect="non-scaling-stroke" d="
  M 1505.50 281.77
  A 0.27 0.27 0.0 0 0 1505.23 281.50
  L 1488.01 281.50
  A 0.27 0.27 0.0 0 0 1487.74 281.77
  L 1487.74 357.35
  A 0.27 0.27 0.0 0 0 1488.01 357.62
  L 1505.23 357.62
  A 0.27 0.27 0.0 0 0 1505.50 357.35
  L 1505.50 281.77"
/>
<path stroke="#8e9fbc" vector-effect="non-scaling-stroke" d="
  M 1568.59 341.28
  Q 1570.46 347.04 1572.50 352.75
  C 1573.66 355.98 1574.51 357.12 1578.19 357.44
  Q 1584.47 358.00 1591.63 357.70
  A 0.59 0.58 -11.4 0 0 1592.16 356.91
  L 1563.12 282.02
  A 0.73 0.72 -10.5 0 0 1562.44 281.56
  L 1545.53 281.50
  A 0.76 0.75 9.9 0 0 1544.82 281.99
  L 1515.74 357.21
  A 0.36 0.36 -79.1 0 0 1516.07 357.70
  C 1521.64 357.79 1532.74 359.85 1535.14 353.21
  Q 1537.25 347.37 1539.39 341.10
  A 0.83 0.80 -80.1 0 1 1540.17 340.53
  L 1567.94 340.79
  A 0.72 0.69 81.0 0 1 1568.59 341.28"
/>
<path stroke="#8e9fbc" vector-effect="non-scaling-stroke" d="
  M 258.4904 153.2300
  A 28.40 23.96 90.1 0 0 282.5000 124.8718
  A 28.40 23.96 90.1 0 0 258.5896 96.4300
  A 28.40 23.96 90.1 0 0 234.5800 124.7882
  A 28.40 23.96 90.1 0 0 258.4904 153.2300"
/>
<path stroke="#8e9fbc" vector-effect="non-scaling-stroke" d="
  M 1157.92 186.84
  C 1152.40 197.54 1153.18 215.14 1162.52 223.74
  C 1173.54 233.89 1194.21 230.55 1200.19 216.19
  C 1206.18 201.77 1203.03 179.65 1184.76 175.45
  C 1173.80 172.92 1163.09 176.81 1157.92 186.84"
/>
<path stroke="#8e9fbc" vector-effect="non-scaling-stroke" d="
  M 1316.90 182.15
  C 1306.04 195.22 1307.87 223.62 1327.86 228.49
  C 1341.24 231.74 1353.92 226.25 1357.57 212.27
  C 1360.08 202.65 1359.08 190.13 1352.56 182.27
  C 1344.42 172.44 1325.27 172.09 1316.90 182.15"
/>
<path stroke="#8e9fbc" vector-effect="non-scaling-stroke" d="
  M 1543.26 211.79
  A 0.33 0.33 9.2 0 0 1543.58 212.23
  L 1565.76 212.27
  A 0.33 0.33 80.9 0 0 1566.08 211.83
  L 1555.04 178.37
  A 0.33 0.33 45.2 0 0 1554.42 178.37
  L 1543.26 211.79"
/>
<path stroke="#8e9fbc" vector-effect="non-scaling-stroke" d="
  M 1115.3201 314.7211
  A 19.20 19.20 0.0 0 0 1095.9200 295.7232
  L 1092.4602 295.7594
  A 19.20 19.20 0.0 0 0 1073.4623 315.1594
  L 1073.5599 324.4789
  A 19.20 19.20 0.0 0 0 1092.9600 343.4768
  L 1096.4198 343.4406
  A 19.20 19.20 0.0 0 0 1115.4177 324.0406
  L 1115.3201 314.7211"
/>
<path stroke="#8e9fbb" vector-effect="non-scaling-stroke" d="
  M 1304.50 308.25
  C 1306.83 294.56 1294.72 294.98 1285.65 294.74
  A 0.90 0.89 -89.1 0 0 1284.74 295.63
  L 1284.56 316.46
  A 0.75 0.73 -88.4 0 0 1285.25 317.21
  C 1292.69 317.60 1302.88 317.74 1304.50 308.25"
/>
<path stroke="#8e9fbb" vector-effect="non-scaling-stroke" d="
  M 1360.59 328.02
  A 0.32 0.32 -80.4 0 0 1360.89 328.45
  L 1380.50 328.55
  A 0.32 0.32 -9.1 0 0 1380.81 328.13
  L 1371.15 299.05
  A 0.32 0.32 45.4 0 0 1370.55 299.04
  L 1360.59 328.02"
/>
<path stroke="#8e9fbb" vector-effect="non-scaling-stroke" d="
  M 1453.06 297.44
  C 1449.32 294.46 1440.89 294.32 1435.76 294.99
  A 0.60 0.59 86.1 0 0 1435.25 295.58
  L 1435.25 318.24
  A 0.49 0.49 1.2 0 0 1435.72 318.73
  C 1440.81 318.91 1448.73 319.31 1452.66 316.67
  C 1458.52 312.74 1458.46 301.73 1453.06 297.44"
/>
<path stroke="#8e9fbc" vector-effect="non-scaling-stroke" d="
  M 1553.99 298.29
  L 1543.97 327.97
  A 0.37 0.36 9.5 0 0 1544.32 328.45
  L 1563.57 328.33
  A 0.37 0.35 80.5 0 0 1563.90 327.85
  L 1554.35 298.30
  Q 1554.17 297.75 1553.99 298.29"
/>
<path stroke="#8e9fbb" vector-effect="non-scaling-stroke" d="
  M 267.13 389.98
  C 259.16 387.51 256.57 392.62 254.14 399.35
  A 0.85 0.82 -80.4 0 0 254.92 400.48
  L 272.69 400.22
  A 0.63 0.61 -85.4 0 0 273.28 399.70
  C 274.10 394.78 271.88 391.46 267.13 389.98"
/>
</g>
<path fill="#ffffff" d="
  M 0.00 0.00
  L 600.31 0.00
  L 599.21 0.50
  C 597.29 0.04 599.87 6.68 600.10 7.58
  C 614.97 67.47 611.24 131.93 579.88 186.21
  Q 570.49 202.47 568.31 206.81
  C 551.28 240.81 543.42 278.99 541.23 316.75
  C 537.64 378.34 546.45 440.64 569.50 498.00
  Q 569.92 499.06 571.44 499.00
  L 0.00 499.00
  L 0.00 0.00
  Z
  M 317.74 113.36
  C 290.49 97.51 263.24 81.38 235.57 66.27
  Q 221.51 58.59 206.85 62.19
  Q 201.78 63.44 193.34 68.22
  Q 168.04 82.53 142.93 97.19
  Q 142.39 97.50 142.96 97.75
  C 185.37 116.40 222.26 147.23 242.74 189.19
  A 1.08 1.08 -21.1 0 0 244.01 189.75
  C 280.36 179.28 308.44 155.23 330.14 124.96
  A 0.70 0.70 -45.8 0 0 330.13 124.13
  C 326.62 119.30 323.30 116.59 317.74 113.36
  Z
  M 175.17 310.95
  C 200.34 239.53 190.78 155.23 124.98 108.59
  A 1.64 1.63 47.8 0 0 123.23 108.50
  C 118.09 111.44 112.38 114.30 108.36 117.76
  C 98.87 125.94 94.80 136.03 94.70 148.51
  Q 94.37 188.01 94.47 227.51
  Q 94.51 244.54 94.92 247.48
  Q 97.13 263.41 109.51 273.20
  Q 111.96 275.13 126.62 283.53
  Q 150.41 297.14 174.56 311.17
  A 0.42 0.42 25.1 0 0 175.17 310.95
  Z
  M 324.05 272.54
  C 332.99 265.15 338.11 253.93 338.00 242.00
  Q 337.74 213.75 338.18 153.62
  A 0.30 0.23 83.7 0 0 337.88 153.30
  Q 337.72 153.36 337.63 153.59
  C 312.64 223.39 260.91 284.19 199.65 324.49
  Q 198.78 325.06 199.73 325.47
  Q 212.85 331.13 225.58 327.97
  Q 231.09 326.61 242.66 319.98
  Q 275.03 301.44 307.32 282.73
  Q 321.99 274.24 324.05 272.54
  Z
  M 165.3399 359.6465
  A 10.80 9.52 0.3 0 0 154.5898 350.0701
  A 10.80 9.52 0.3 0 0 143.7401 359.5335
  A 10.80 9.52 0.3 0 0 154.4902 369.1099
  A 10.80 9.52 0.3 0 0 165.3399 359.6465
  Z
  M 101.31 421.45
  L 101.25 354.81
  A 0.56 0.55 90.0 0 0 100.70 354.25
  L 81.80 354.31
  A 0.51 0.49 90.0 0 0 81.31 354.82
  L 81.06 436.89
  A 0.61 0.61 -89.8 0 0 81.67 437.50
  L 135.67 437.50
  A 0.64 0.64 -89.5 0 0 136.31 436.87
  Q 136.46 426.87 129.54 423.54
  C 123.51 420.65 109.67 422.02 101.81 421.94
  A 0.50 0.49 0.0 0 1 101.31 421.45
  Z
  M 234.50 411.75
  C 237.17 434.07 259.20 443.53 278.99 436.24
  Q 285.74 433.75 290.43 428.37
  A 0.64 0.61 47.6 0 0 290.45 427.59
  Q 286.80 422.51 282.36 418.10
  A 0.52 0.52 90.0 0 0 281.64 418.10
  C 272.91 426.30 258.23 426.64 254.19 413.24
  A 0.58 0.58 82.2 0 1 254.75 412.50
  Q 270.74 412.54 285.84 412.45
  C 288.41 412.43 291.45 411.56 292.00 409.00
  C 294.73 396.30 287.44 379.33 274.00 375.75
  C 248.73 369.02 231.56 387.17 234.50 411.75
  Z
  M 298.85 394.55
  C 299.57 415.66 334.48 410.90 332.71 421.03
  C 332.29 423.50 330.09 424.98 327.74 425.43
  C 320.14 426.86 318.65 423.43 312.92 420.55
  Q 305.75 416.95 297.58 417.74
  A 0.96 0.96 81.8 0 0 296.73 418.88
  Q 299.12 431.21 310.56 435.94
  C 322.04 440.68 340.79 439.57 348.59 428.52
  C 353.44 421.64 351.80 411.66 345.00 406.29
  C 339.77 402.15 331.24 400.39 324.80 399.02
  C 309.66 395.80 319.57 382.33 330.81 389.44
  Q 339.68 395.04 350.46 394.49
  A 1.18 1.18 -6.6 0 0 351.56 393.10
  Q 349.29 380.32 337.29 376.38
  C 323.58 371.87 298.18 374.93 298.85 394.55
  Z
  M 163.88 388.46
  C 161.98 379.81 154.44 375.19 145.59 375.54
  A 0.61 0.61 -1.0 0 0 145.00 376.15
  L 145.00 436.61
  A 0.88 0.87 -90.0 0 0 145.87 437.49
  L 163.81 437.33
  A 0.51 0.50 -90.0 0 0 164.31 436.82
  Q 164.22 417.70 164.24 398.58
  Q 164.25 390.13 163.88 388.46
  Z
  M 201.36 412.76
  Q 200.95 414.37 200.56 412.75
  Q 197.78 401.06 194.79 389.69
  C 191.65 377.72 182.83 375.25 171.65 375.50
  A 0.60 0.60 -9.3 0 0 171.09 376.28
  L 190.91 436.96
  A 0.71 0.67 80.5 0 0 191.56 437.45
  L 210.43 437.44
  A 0.70 0.69 -80.7 0 0 211.09 436.96
  L 231.17 375.99
  A 0.33 0.32 -79.7 0 0 230.88 375.56
  C 216.59 374.74 209.39 379.77 206.15 393.67
  C 204.37 401.32 202.99 406.48 201.36 412.76
  Z"
/>
<path fill="#3e8587" d="
  M 600.31 0.00
  L 605.57 0.27
  Q 614.13 13.72 617.94 23.31
  C 639.85 78.51 629.05 141.27 615.25 196.50
  Q 604.51 239.52 599.75 285.75
  C 593.39 347.62 598.44 414.13 629.94 468.56
  Q 638.87 484.00 652.09 498.87
  L 606.19 499.00
  Q 604.80 499.05 604.28 497.99
  C 557.63 403.07 556.30 293.74 591.85 194.40
  C 601.91 166.31 608.91 142.00 612.37 113.38
  C 616.91 75.92 612.85 38.39 600.56 2.69
  Q 600.33 2.02 599.21 0.50
  L 600.31 0.00
  Z"
/>
<path fill="#35a3b2" d="
  M 605.57 0.27
  L 609.31 0.00
  Q 608.95 0.49 609.35 0.76
  Q 610.03 1.22 610.12 1.33
  C 647.88 49.34 643.30 121.14 631.25 176.87
  C 622.38 217.95 615.68 260.19 614.02 302.24
  C 611.24 372.22 622.60 446.86 675.68 497.69
  C 676.44 498.42 676.25 499.13 677.94 499.00
  L 652.09 498.87
  Q 638.87 484.00 629.94 468.56
  C 598.44 414.13 593.39 347.62 599.75 285.75
  Q 604.51 239.52 615.25 196.50
  C 629.05 141.27 639.85 78.51 617.94 23.31
  Q 614.13 13.72 605.57 0.27
  Z"
/>
<path fill="#1c3f79" d="
  M 609.31 0.00
  L 1818.00 0.00
  L 1818.00 499.00
  L 677.94 499.00
  C 676.25 499.13 676.44 498.42 675.68 497.69
  C 622.60 446.86 611.24 372.22 614.02 302.24
  C 615.68 260.19 622.38 217.95 631.25 176.87
  C 643.30 121.14 647.88 49.34 610.12 1.33
  Q 610.03 1.22 609.35 0.76
  Q 608.95 0.49 609.31 0.00
  Z
  M 1487.16 142.24
  C 1484.12 145.84 1480.74 149.22 1477.57 152.54
  Q 1476.77 153.38 1477.93 153.46
  C 1482.74 153.80 1492.32 154.81 1496.25 152.28
  Q 1505.29 146.45 1514.25 139.73
  Q 1515.23 139.00 1514.01 139.00
  Q 1506.15 139.00 1499.13 139.00
  C 1493.40 139.00 1490.37 138.44 1487.16 142.24
  Z
  M 1057.00 158.25
  C 1040.57 158.37 1027.20 170.35 1029.00 187.25
  C 1030.58 202.07 1041.72 206.92 1054.25 210.00
  Q 1060.75 211.60 1063.94 214.06
  C 1068.01 217.20 1067.81 223.49 1064.57 227.10
  C 1059.70 232.52 1049.19 230.07 1043.75 226.76
  C 1041.15 225.18 1037.41 222.45 1034.30 223.44
  C 1031.10 224.46 1027.46 231.39 1025.88 234.29
  A 1.00 0.99 -56.0 0 0 1026.12 235.53
  C 1045.20 251.23 1082.97 251.69 1085.77 220.00
  Q 1086.86 207.59 1078.21 200.50
  C 1070.19 193.92 1059.28 193.67 1051.19 188.56
  C 1044.51 184.34 1047.80 175.56 1054.82 174.34
  Q 1061.83 173.12 1068.10 176.36
  C 1071.25 177.99 1075.42 181.33 1078.69 177.94
  Q 1081.73 174.78 1084.33 167.48
  A 0.70 0.70 -61.4 0 0 1084.10 166.69
  Q 1072.92 158.14 1057.00 158.25
  Z
  M 1177.00 158.25
  C 1121.29 159.24 1119.03 241.47 1174.25 246.03
  C 1237.35 251.24 1240.95 157.11 1177.00 158.25
  Z
  M 1329.25 158.50
  C 1277.30 163.57 1276.65 239.50 1328.24 245.87
  Q 1344.84 247.92 1358.22 240.16
  C 1378.88 228.18 1384.86 201.58 1374.26 180.86
  C 1365.71 164.14 1347.82 156.69 1329.25 158.50
  Z
  M 1397.19 172.19
  C 1384.62 186.30 1382.83 209.33 1392.56 225.44
  Q 1401.94 240.96 1420.35 245.02
  C 1434.16 248.06 1450.73 245.57 1462.53 237.47
  A 1.53 1.37 -10.5 0 0 1463.11 236.72
  C 1463.85 234.51 1463.25 232.21 1463.25 230.55
  Q 1463.25 216.59 1463.52 201.46
  A 0.94 0.94 -89.4 0 0 1462.58 200.50
  L 1433.26 200.50
  A 0.74 0.71 -0.4 0 0 1432.52 201.22
  L 1432.77 212.02
  Q 1432.84 215.00 1435.73 215.05
  L 1444.27 215.20
  A 0.95 0.86 0.6 0 1 1445.21 216.07
  L 1445.09 227.57
  A 0.79 0.73 -12.0 0 1 1444.60 228.26
  C 1418.34 239.13 1400.49 214.39 1408.75 190.75
  C 1414.83 173.36 1434.31 170.99 1448.63 179.25
  C 1451.68 181.01 1454.97 182.62 1457.31 179.56
  Q 1460.71 175.13 1463.65 170.16
  A 0.63 0.62 36.8 0 0 1463.53 169.37
  C 1445.68 153.76 1413.36 154.01 1397.19 172.19
  Z
  M 764.05 193.19
  L 763.76 159.81
  A 0.81 0.81 89.9 0 0 762.95 159.00
  L 744.35 158.93
  A 0.60 0.59 -0.0 0 0 743.75 159.52
  L 743.75 244.73
  A 0.52 0.51 90.0 0 0 744.26 245.25
  L 763.44 245.19
  A 0.50 0.49 90.0 0 0 763.93 244.69
  L 763.80 209.30
  A 0.52 0.49 -89.5 0 1 764.30 208.78
  L 771.86 209.05
  Q 774.02 209.13 775.43 211.30
  Q 784.31 224.95 793.26 238.54
  C 796.11 242.86 796.70 244.90 802.71 245.11
  Q 811.09 245.40 820.18 245.23
  Q 821.07 245.22 820.58 244.47
  Q 807.90 225.09 795.36 205.66
  Q 792.94 201.90 788.96 199.63
  Q 787.67 198.90 788.99 198.21
  Q 790.90 197.21 792.64 194.88
  Q 805.59 177.53 818.30 159.78
  Q 818.85 159.01 817.91 158.98
  Q 809.00 158.68 799.64 159.34
  C 796.27 159.57 794.21 160.75 792.39 163.40
  Q 783.84 175.92 775.20 188.39
  C 772.22 192.70 769.82 194.67 764.56 193.78
  A 0.60 0.60 4.5 0 1 764.05 193.19
  Z
  M 888.11 192.12
  Q 887.98 190.59 888.93 191.80
  Q 907.20 215.09 925.63 238.23
  C 929.56 243.17 930.43 245.07 936.50 245.25
  Q 941.03 245.38 945.56 245.10
  A 0.55 0.54 -2.3 0 0 946.07 244.56
  L 946.00 159.75
  A 0.52 0.50 -89.4 0 0 945.51 159.23
  L 929.20 158.93
  A 0.51 0.50 0.6 0 0 928.68 159.43
  L 928.51 212.57
  Q 928.50 213.38 928.00 212.75
  L 887.02 161.04
  Q 885.56 159.20 883.54 159.19
  L 871.43 159.15
  A 0.54 0.50 90.0 0 0 870.93 159.69
  L 870.81 244.69
  A 0.50 0.50 0.0 0 0 871.31 245.19
  L 887.95 245.25
  A 0.55 0.55 90.0 0 0 888.50 244.70
  C 888.50 227.32 889.57 209.07 888.11 192.12
  Z
  M 1235.44 159.54
  L 1235.26 244.66
  A 0.79 0.76 0.4 0 0 1236.05 245.43
  L 1286.58 245.25
  A 0.67 0.66 0.0 0 0 1287.25 244.59
  L 1287.25 229.94
  A 0.69 0.69 0.1 0 0 1286.56 229.25
  L 1256.11 229.19
  A 0.62 0.61 90.0 0 1 1255.50 228.57
  L 1255.32 159.69
  A 0.52 0.51 90.0 0 0 1254.81 159.17
  L 1235.96 159.02
  A 0.52 0.51 -89.5 0 0 1235.44 159.54
  Z
  M 1544.43 159.45
  L 1511.22 244.77
  A 0.35 0.35 10.7 0 0 1511.55 245.25
  C 1516.11 245.25 1529.93 246.76 1532.44 242.44
  Q 1534.36 239.12 1538.05 226.66
  A 0.67 0.67 -82.2 0 1 1538.69 226.18
  L 1570.38 226.01
  A 0.87 0.84 80.2 0 1 1571.20 226.61
  Q 1573.26 232.75 1575.51 239.16
  C 1576.86 243.01 1578.32 245.16 1582.50 245.21
  Q 1590.10 245.29 1597.70 245.19
  A 0.35 0.34 79.2 0 0 1598.01 244.72
  L 1565.10 159.64
  A 1.01 1.01 -10.6 0 0 1564.16 159.00
  L 1545.09 159.00
  A 0.72 0.71 -79.0 0 0 1544.43 159.45
  Z
  M 852.50 159.37
  A 0.36 0.36 0.0 0 0 852.14 159.01
  L 832.68 159.01
  A 0.36 0.36 0.0 0 0 832.32 159.37
  L 832.32 244.89
  A 0.36 0.36 0.0 0 0 832.68 245.25
  L 852.14 245.25
  A 0.36 0.36 0.0 0 0 852.50 244.89
  L 852.50 159.37
  Z
  M 982.81 193.95
  L 982.80 175.07
  A 0.51 0.51 0.0 0 1 983.31 174.56
  L 1017.29 174.50
  A 0.63 0.60 0.5 0 0 1017.92 173.91
  L 1018.23 159.72
  A 0.74 0.71 0.4 0 0 1017.49 159.00
  L 963.06 159.00
  A 0.56 0.56 90.0 0 0 962.50 159.56
  L 962.50 244.74
  A 0.51 0.51 0.0 0 0 963.01 245.25
  L 1017.30 245.25
  A 0.93 0.89 -0.6 0 0 1018.23 244.34
  L 1018.00 230.30
  A 0.60 0.57 0.0 0 0 1017.41 229.74
  L 983.43 229.57
  A 0.52 0.51 -90.0 0 1 982.92 229.05
  L 982.76 210.16
  A 0.67 0.66 0.0 0 1 983.43 209.50
  L 1009.24 209.50
  A 0.53 0.50 0.0 0 0 1009.77 209.00
  L 1009.77 195.36
  A 0.91 0.86 -0.0 0 0 1008.86 194.50
  L 983.31 194.44
  A 0.50 0.49 0.0 0 1 982.81 193.95
  Z
  M 1120.25 159.27
  A 0.27 0.27 0.0 0 0 1119.98 159.00
  L 1100.26 159.00
  A 0.27 0.27 0.0 0 0 1099.99 159.27
  L 1099.99 244.97
  A 0.27 0.27 0.0 0 0 1100.26 245.24
  L 1119.98 245.24
  A 0.27 0.27 0.0 0 0 1120.25 244.97
  L 1120.25 159.27
  Z
  M 1499.75 159.26
  A 0.26 0.26 0.0 0 0 1499.49 159.00
  L 1479.79 159.00
  A 0.26 0.26 0.0 0 0 1479.53 159.26
  L 1479.53 245.00
  A 0.26 0.26 0.0 0 0 1479.79 245.26
  L 1499.49 245.26
  A 0.26 0.26 0.0 0 0 1499.75 245.00
  L 1499.75 159.26
  Z
  M 987.94 310.31
  C 970.07 305.10 981.18 290.10 994.51 296.05
  Q 998.61 297.88 1002.62 299.37
  Q 1004.73 300.15 1006.05 298.33
  Q 1009.07 294.17 1011.06 289.46
  A 0.76 0.74 34.0 0 0 1010.89 288.64
  C 998.52 276.55 969.39 277.78 963.40 296.15
  C 960.69 304.44 962.14 313.38 968.30 319.15
  C 974.65 325.10 984.31 325.52 991.85 329.37
  C 996.20 331.60 997.12 337.58 994.30 341.01
  C 988.06 348.60 976.49 341.93 970.09 338.75
  C 965.02 336.22 961.79 344.10 959.59 347.77
  A 1.08 1.07 -55.7 0 0 959.85 349.17
  Q 971.53 358.14 984.93 358.35
  C 996.36 358.53 1006.78 353.58 1010.79 342.57
  C 1015.04 330.90 1011.71 319.32 999.51 314.48
  Q 991.98 311.49 987.94 310.31
  Z
  M 1055.86 310.58
  C 1050.46 335.09 1066.93 357.63 1092.19 358.31
  C 1118.85 359.03 1137.62 339.53 1133.25 312.52
  C 1126.54 271.12 1064.85 269.73 1055.86 310.58
  Z
  M 803.03 315.80
  C 798.27 306.14 792.94 296.36 788.79 286.46
  C 786.39 280.74 782.29 281.50 775.96 281.50
  Q 771.49 281.50 767.06 281.50
  Q 766.61 281.50 766.84 281.89
  L 793.58 327.64
  A 4.88 4.79 30.2 0 1 794.25 330.09
  L 794.25 357.09
  A 0.66 0.66 90.0 0 0 794.91 357.75
  L 811.33 357.75
  A 0.67 0.67 90.0 0 0 812.00 357.08
  Q 812.00 345.68 812.00 334.76
  C 812.00 330.25 811.73 329.30 813.69 325.94
  Q 826.49 303.98 839.14 282.19
  Q 839.54 281.50 838.75 281.50
  Q 831.62 281.50 824.75 281.52
  Q 819.93 281.53 817.50 286.50
  Q 810.35 301.09 803.46 315.80
  Q 803.25 316.25 803.03 315.80
  Z
  M 887.31 328.31
  L 912.06 328.19
  A 0.70 0.69 -0.4 0 0 912.75 327.50
  L 912.75 314.76
  A 0.52 0.51 0.0 0 0 912.23 314.25
  L 887.57 314.19
  A 0.52 0.50 -0.0 0 1 887.05 313.69
  L 887.05 295.81
  A 0.51 0.50 -0.0 0 1 887.56 295.31
  L 917.44 295.25
  A 0.56 0.55 -0.0 0 0 918.00 294.70
  L 918.00 282.00
  A 0.50 0.50 0.0 0 0 917.50 281.50
  L 869.71 281.50
  A 0.61 0.60 -86.8 0 0 869.11 282.04
  Q 868.65 286.12 868.79 289.25
  C 869.28 301.02 868.77 313.90 868.93 324.58
  Q 869.18 340.59 868.74 356.79
  A 0.94 0.93 -89.4 0 0 869.67 357.75
  L 886.24 357.75
  A 0.52 0.51 90.0 0 0 886.75 357.23
  L 886.81 328.81
  A 0.50 0.50 0.0 0 1 887.31 328.31
  Z
  M 948.51 281.77
  A 0.27 0.27 0.0 0 0 948.24 281.50
  L 931.02 281.50
  A 0.27 0.27 0.0 0 0 930.75 281.77
  L 930.75 357.45
  A 0.27 0.27 0.0 0 0 931.02 357.72
  L 948.24 357.72
  A 0.27 0.27 0.0 0 0 948.51 357.45
  L 948.51 281.77
  Z
  M 1042.75 282.08
  A 0.58 0.58 0.0 0 0 1042.17 281.50
  L 1025.33 281.50
  A 0.58 0.58 0.0 0 0 1024.75 282.08
  L 1024.75 357.12
  A 0.58 0.58 0.0 0 0 1025.33 357.70
  L 1042.17 357.70
  A 0.58 0.58 0.0 0 0 1042.75 357.12
  L 1042.75 282.08
  Z
  M 1157.22 296.05
  Q 1157.66 302.37 1157.53 308.69
  C 1157.19 324.79 1157.60 340.90 1157.50 357.01
  A 0.53 0.52 1.8 0 0 1158.00 357.53
  Q 1166.25 358.06 1174.50 357.53
  A 0.54 0.54 -1.1 0 0 1175.01 357.00
  C 1175.33 336.81 1174.37 316.30 1175.41 296.19
  A 0.54 0.52 -88.2 0 1 1175.93 295.68
  L 1196.06 295.56
  A 0.49 0.48 -0.6 0 0 1196.55 295.07
  L 1196.50 282.06
  A 0.56 0.55 90.0 0 0 1195.95 281.50
  L 1136.69 281.50
  A 0.69 0.69 -0.1 0 0 1136.00 282.19
  L 1136.00 294.63
  A 0.89 0.88 0.3 0 0 1136.88 295.51
  L 1156.69 295.56
  A 0.53 0.52 -1.7 0 1 1157.22 296.05
  Z
  M 1223.81 343.44
  L 1223.76 326.76
  A 0.78 0.77 -0.4 0 1 1224.53 325.99
  L 1247.20 325.94
  A 0.50 0.49 -0.0 0 0 1247.70 325.45
  L 1247.75 313.43
  A 0.69 0.68 0.0 0 0 1247.06 312.75
  L 1224.31 312.75
  A 0.56 0.56 -89.8 0 1 1223.75 312.19
  L 1223.75 295.80
  A 0.56 0.55 0.0 0 1 1224.31 295.25
  L 1254.20 295.19
  A 0.55 0.54 -87.1 0 0 1254.74 294.70
  Q 1255.32 288.93 1254.64 282.11
  A 0.69 0.67 86.7 0 0 1253.97 281.50
  L 1206.57 281.56
  A 0.51 0.50 -0.0 0 0 1206.06 282.06
  L 1205.81 356.96
  A 0.78 0.77 89.6 0 0 1206.59 357.74
  L 1254.30 357.57
  A 0.53 0.51 0.0 0 0 1254.83 357.06
  L 1254.75 344.78
  A 0.82 0.78 0.0 0 0 1253.93 344.00
  L 1224.32 343.94
  A 0.51 0.50 0.0 0 1 1223.81 343.44
  Z
  M 1307.67 326.02
  Q 1307.25 325.71 1307.73 325.51
  C 1330.87 315.96 1325.52 283.36 1299.50 282.00
  Q 1284.14 281.20 1267.62 281.52
  A 0.63 0.63 -0.5 0 0 1267.00 282.15
  C 1267.00 304.50 1267.32 326.71 1266.82 348.75
  Q 1266.72 352.97 1267.03 357.18
  A 0.54 0.54 88.3 0 0 1267.57 357.69
  L 1283.95 357.75
  A 0.55 0.55 90.0 0 0 1284.50 357.20
  L 1284.50 330.70
  A 0.99 0.99 85.8 0 1 1285.34 329.72
  C 1289.91 329.01 1292.13 329.18 1294.61 333.37
  Q 1300.63 343.51 1306.29 353.87
  Q 1308.19 357.35 1311.25 357.50
  Q 1319.37 357.91 1328.48 357.73
  A 0.43 0.43 74.2 0 0 1328.84 357.08
  C 1324.39 349.57 1319.70 342.27 1315.44 334.76
  Q 1312.48 329.54 1307.67 326.02
  Z
  M 1385.11 341.03
  L 1390.01 354.36
  Q 1391.15 357.45 1394.23 357.50
  L 1408.51 357.73
  A 0.54 0.53 79.9 0 0 1409.01 357.00
  L 1380.05 282.13
  A 0.99 0.98 -10.3 0 0 1379.13 281.50
  L 1362.33 281.50
  A 0.77 0.74 9.9 0 0 1361.62 281.98
  L 1332.67 357.04
  A 0.38 0.37 12.6 0 0 1333.00 357.54
  C 1337.22 357.90 1349.98 359.19 1351.69 354.19
  Q 1353.95 347.58 1356.38 341.04
  A 0.74 0.72 -79.5 0 1 1357.06 340.56
  L 1384.45 340.56
  A 0.71 0.70 79.9 0 1 1385.11 341.03
  Z
  M 1435.55 332.49
  Q 1438.39 332.11 1441.25 332.23
  C 1459.85 333.00 1475.94 325.87 1474.52 304.02
  C 1473.69 291.31 1463.82 282.86 1451.50 282.00
  Q 1438.10 281.06 1418.06 281.55
  A 0.52 0.51 89.4 0 0 1417.56 282.07
  L 1417.56 357.19
  A 0.51 0.50 0.0 0 0 1418.07 357.69
  L 1434.60 357.75
  A 0.64 0.63 0.0 0 0 1435.24 357.12
  L 1435.08 333.07
  A 0.58 0.55 85.5 0 1 1435.55 332.49
  Z
  M 1505.50 281.77
  A 0.27 0.27 0.0 0 0 1505.23 281.50
  L 1488.01 281.50
  A 0.27 0.27 0.0 0 0 1487.74 281.77
  L 1487.74 357.35
  A 0.27 0.27 0.0 0 0 1488.01 357.62
  L 1505.23 357.62
  A 0.27 0.27 0.0 0 0 1505.50 357.35
  L 1505.50 281.77
  Z
  M 1568.59 341.28
  Q 1570.46 347.04 1572.50 352.75
  C 1573.66 355.98 1574.51 357.12 1578.19 357.44
  Q 1584.47 358.00 1591.63 357.70
  A 0.59 0.58 -11.4 0 0 1592.16 356.91
  L 1563.12 282.02
  A 0.73 0.72 -10.5 0 0 1562.44 281.56
  L 1545.53 281.50
  A 0.76 0.75 9.9 0 0 1544.82 281.99
  L 1515.74 357.21
  A 0.36 0.36 -79.1 0 0 1516.07 357.70
  C 1521.64 357.79 1532.74 359.85 1535.14 353.21
  Q 1537.25 347.37 1539.39 341.10
  A 0.83 0.80 -80.1 0 1 1540.17 340.53
  L 1567.94 340.79
  A 0.72 0.69 81.0 0 1 1568.59 341.28
  Z"
/>
<path fill="#d8d8d8" d="
  M 599.21 0.50
  Q 600.33 2.02 600.56 2.69
  C 612.85 38.39 616.91 75.92 612.37 113.38
  C 608.91 142.00 601.91 166.31 591.85 194.40
  C 556.30 293.74 557.63 403.07 604.28 497.99
  Q 604.80 499.05 606.19 499.00
  L 571.44 499.00
  Q 569.92 499.06 569.50 498.00
  C 546.45 440.64 537.64 378.34 541.23 316.75
  C 543.42 278.99 551.28 240.81 568.31 206.81
  Q 570.49 202.47 579.88 186.21
  C 611.24 131.93 614.97 67.47 600.10 7.58
  C 599.87 6.68 597.29 0.04 599.21 0.50
  Z"
/>
<path fill="#1c3f79" d="
  M 235.57 66.27
  C 263.24 81.38 290.49 97.51 317.74 113.36
  C 323.30 116.59 326.62 119.30 330.13 124.13
  A 0.70 0.70 -45.8 0 1 330.14 124.96
  C 308.44 155.23 280.36 179.28 244.01 189.75
  A 1.08 1.08 -21.1 0 1 242.74 189.19
  C 222.26 147.23 185.37 116.40 142.96 97.75
  Q 142.39 97.50 142.93 97.19
  Q 168.04 82.53 193.34 68.22
  Q 201.78 63.44 206.85 62.19
  Q 221.51 58.59 235.57 66.27
  Z
  M 258.4904 153.2300
  A 28.40 23.96 90.1 0 0 282.5000 124.8718
  A 28.40 23.96 90.1 0 0 258.5896 96.4300
  A 28.40 23.96 90.1 0 0 234.5800 124.7882
  A 28.40 23.96 90.1 0 0 258.4904 153.2300
  Z"
/>
<ellipse fill="#ffffff" cx="0.00" cy="0.00" transform="translate(258.54,124.83) rotate(90.1)" rx="28.40" ry="23.96"/>
<path fill="#3e8387" d="
  M 124.98 108.59
  C 190.78 155.23 200.34 239.53 175.17 310.95
  A 0.42 0.42 25.1 0 1 174.56 311.17
  Q 150.41 297.14 126.62 283.53
  Q 111.96 275.13 109.51 273.20
  Q 97.13 263.41 94.92 247.48
  Q 94.51 244.54 94.47 227.51
  Q 94.37 188.01 94.70 148.51
  C 94.80 136.03 98.87 125.94 108.36 117.76
  C 112.38 114.30 118.09 111.44 123.23 108.50
  A 1.64 1.63 47.8 0 1 124.98 108.59
  Z"
/>
<path fill="#ffffff" d="
  M 1487.16 142.24
  C 1490.37 138.44 1493.40 139.00 1499.13 139.00
  Q 1506.15 139.00 1514.01 139.00
  Q 1515.23 139.00 1514.25 139.73
  Q 1505.29 146.45 1496.25 152.28
  C 1492.32 154.81 1482.74 153.80 1477.93 153.46
  Q 1476.77 153.38 1477.57 152.54
  C 1480.74 149.22 1484.12 145.84 1487.16 142.24
  Z"
/>
<path fill="#36a1b0" d="
  M 338.00 242.00
  C 338.11 253.93 332.99 265.15 324.05 272.54
  Q 321.99 274.24 307.32 282.73
  Q 275.03 301.44 242.66 319.98
  Q 231.09 326.61 225.58 327.97
  Q 212.85 331.13 199.73 325.47
  Q 198.78 325.06 199.65 324.49
  C 260.91 284.19 312.64 223.39 337.63 153.59
  Q 337.72 153.36 337.88 153.30
  A 0.30 0.23 83.7 0 1 338.18 153.62
  Q 337.74 213.75 338.00 242.00
  Z"
/>
<path fill="#ffffff" d="
  M 1029.00 187.25
  C 1027.20 170.35 1040.57 158.37 1057.00 158.25
  Q 1072.92 158.14 1084.10 166.69
  A 0.70 0.70 -61.4 0 1 1084.33 167.48
  Q 1081.73 174.78 1078.69 177.94
  C 1075.42 181.33 1071.25 177.99 1068.10 176.36
  Q 1061.83 173.12 1054.82 174.34
  C 1047.80 175.56 1044.51 184.34 1051.19 188.56
  C 1059.28 193.67 1070.19 193.92 1078.21 200.50
  Q 1086.86 207.59 1085.77 220.00
  C 1082.97 251.69 1045.20 251.23 1026.12 235.53
  A 1.00 0.99 -56.0 0 1 1025.88 234.29
  C 1027.46 231.39 1031.10 224.46 1034.30 223.44
  C 1037.41 222.45 1041.15 225.18 1043.75 226.76
  C 1049.19 230.07 1059.70 232.52 1064.57 227.10
  C 1067.81 223.49 1068.01 217.20 1063.94 214.06
  Q 1060.75 211.60 1054.25 210.00
  C 1041.72 206.92 1030.58 202.07 1029.00 187.25
  Z"
/>
<path fill="#ffffff" d="
  M 1174.25 246.03
  C 1119.03 241.47 1121.29 159.24 1177.00 158.25
  C 1240.95 157.11 1237.35 251.24 1174.25 246.03
  Z
  M 1157.92 186.84
  C 1152.40 197.54 1153.18 215.14 1162.52 223.74
  C 1173.54 233.89 1194.21 230.55 1200.19 216.19
  C 1206.18 201.77 1203.03 179.65 1184.76 175.45
  C 1173.80 172.92 1163.09 176.81 1157.92 186.84
  Z"
/>
<path fill="#ffffff" d="
  M 1328.24 245.87
  C 1276.65 239.50 1277.30 163.57 1329.25 158.50
  C 1347.82 156.69 1365.71 164.14 1374.26 180.86
  C 1384.86 201.58 1378.88 228.18 1358.22 240.16
  Q 1344.84 247.92 1328.24 245.87
  Z
  M 1316.90 182.15
  C 1306.04 195.22 1307.87 223.62 1327.86 228.49
  C 1341.24 231.74 1353.92 226.25 1357.57 212.27
  C 1360.08 202.65 1359.08 190.13 1352.56 182.27
  C 1344.42 172.44 1325.27 172.09 1316.90 182.15
  Z"
/>
<path fill="#ffffff" d="
  M 1397.19 172.19
  C 1413.36 154.01 1445.68 153.76 1463.53 169.37
  A 0.63 0.62 36.8 0 1 1463.65 170.16
  Q 1460.71 175.13 1457.31 179.56
  C 1454.97 182.62 1451.68 181.01 1448.63 179.25
  C 1434.31 170.99 1414.83 173.36 1408.75 190.75
  C 1400.49 214.39 1418.34 239.13 1444.60 228.26
  A 0.79 0.73 -12.0 0 0 1445.09 227.57
  L 1445.21 216.07
  A 0.95 0.86 0.6 0 0 1444.27 215.20
  L 1435.73 215.05
  Q 1432.84 215.00 1432.77 212.02
  L 1432.52 201.22
  A 0.74 0.71 -0.4 0 1 1433.26 200.50
  L 1462.58 200.50
  A 0.94 0.94 -89.4 0 1 1463.52 201.46
  Q 1463.25 216.59 1463.25 230.55
  C 1463.25 232.21 1463.85 234.51 1463.11 236.72
  A 1.53 1.37 -10.5 0 1 1462.53 237.47
  C 1450.73 245.57 1434.16 248.06 1420.35 245.02
  Q 1401.94 240.96 1392.56 225.44
  C 1382.83 209.33 1384.62 186.30 1397.19 172.19
  Z"
/>
<path fill="#ffffff" d="
  M 764.56 193.78
  C 769.82 194.67 772.22 192.70 775.20 188.39
  Q 783.84 175.92 792.39 163.40
  C 794.21 160.75 796.27 159.57 799.64 159.34
  Q 809.00 158.68 817.91 158.98
  Q 818.85 159.01 818.30 159.78
  Q 805.59 177.53 792.64 194.88
  Q 790.90 197.21 788.99 198.21
  Q 787.67 198.90 788.96 199.63
  Q 792.94 201.90 795.36 205.66
  Q 807.90 225.09 820.58 244.47
  Q 821.07 245.22 820.18 245.23
  Q 811.09 245.40 802.71 245.11
  C 796.70 244.90 796.11 242.86 793.26 238.54
  Q 784.31 224.95 775.43 211.30
  Q 774.02 209.13 771.86 209.05
  L 764.30 208.78
  A 0.52 0.49 -89.5 0 0 763.80 209.30
  L 763.93 244.69
  A 0.50 0.49 -90.0 0 1 763.44 245.19
  L 744.26 245.25
  A 0.52 0.51 -90.0 0 1 743.75 244.73
  L 743.75 159.52
  A 0.60 0.59 0.0 0 1 744.35 158.93
  L 762.95 159.00
  A 0.81 0.81 89.9 0 1 763.76 159.81
  L 764.05 193.19
  A 0.60 0.60 4.5 0 0 764.56 193.78
  Z"
/>
<path fill="#ffffff" d="
  M 888.11 192.12
  C 889.57 209.07 888.50 227.32 888.50 244.70
  A 0.55 0.55 89.9 0 1 887.95 245.25
  L 871.31 245.19
  A 0.50 0.50 0.0 0 1 870.81 244.69
  L 870.93 159.69
  A 0.54 0.50 -90.0 0 1 871.43 159.15
  L 883.54 159.19
  Q 885.56 159.20 887.02 161.04
  L 928.00 212.75
  Q 928.50 213.38 928.51 212.57
  L 928.68 159.43
  A 0.51 0.50 0.6 0 1 929.20 158.93
  L 945.51 159.23
  A 0.52 0.50 -89.4 0 1 946.00 159.75
  L 946.07 244.56
  A 0.55 0.54 -2.3 0 1 945.56 245.10
  Q 941.03 245.38 936.50 245.25
  C 930.43 245.07 929.56 243.17 925.63 238.23
  Q 907.20 215.09 888.93 191.80
  Q 887.98 190.59 888.11 192.12
  Z"
/>
<path fill="#ffffff" d="
  M 1235.44 159.54
  A 0.52 0.51 -89.5 0 1 1235.96 159.02
  L 1254.81 159.17
  A 0.52 0.51 -90.0 0 1 1255.32 159.69
  L 1255.50 228.57
  A 0.62 0.61 90.0 0 0 1256.11 229.19
  L 1286.56 229.25
  A 0.69 0.69 -0.3 0 1 1287.25 229.94
  L 1287.25 244.59
  A 0.67 0.66 -0.0 0 1 1286.58 245.25
  L 1236.05 245.43
  A 0.79 0.76 0.4 0 1 1235.26 244.66
  L 1235.44 159.54
  Z"
/>
<path fill="#ffffff" d="
  M 1544.43 159.45
  A 0.72 0.71 -79.0 0 1 1545.09 159.00
  L 1564.16 159.00
  A 1.01 1.01 -10.6 0 1 1565.10 159.64
  L 1598.01 244.72
  A 0.35 0.34 79.2 0 1 1597.70 245.19
  Q 1590.10 245.29 1582.50 245.21
  C 1578.32 245.16 1576.86 243.01 1575.51 239.16
  Q 1573.26 232.75 1571.20 226.61
  A 0.87 0.84 80.2 0 0 1570.38 226.01
  L 1538.69 226.18
  A 0.67 0.67 -81.9 0 0 1538.05 226.66
  Q 1534.36 239.12 1532.44 242.44
  C 1529.93 246.76 1516.11 245.25 1511.55 245.25
  A 0.35 0.35 10.7 0 1 1511.22 244.77
  L 1544.43 159.45
  Z
  M 1543.26 211.79
  A 0.33 0.33 9.2 0 0 1543.58 212.23
  L 1565.76 212.27
  A 0.33 0.33 80.9 0 0 1566.08 211.83
  L 1555.04 178.37
  A 0.33 0.33 45.2 0 0 1554.42 178.37
  L 1543.26 211.79
  Z"
/>
<rect fill="#ffffff" x="832.32" y="159.01" width="20.18" height="86.24" rx="0.36"/>
<path fill="#ffffff" d="
  M 983.31 194.44
  L 1008.86 194.50
  A 0.91 0.86 0.0 0 1 1009.77 195.36
  L 1009.77 209.00
  A 0.53 0.50 0.0 0 1 1009.24 209.50
  L 983.43 209.50
  A 0.67 0.66 0.0 0 0 982.76 210.16
  L 982.92 229.05
  A 0.52 0.51 90.0 0 0 983.43 229.57
  L 1017.41 229.74
  A 0.60 0.57 0.0 0 1 1018.00 230.30
  L 1018.23 244.34
  A 0.93 0.89 -0.6 0 1 1017.30 245.25
  L 963.01 245.25
  A 0.51 0.51 0.0 0 1 962.50 244.74
  L 962.50 159.56
  A 0.56 0.56 89.8 0 1 963.06 159.00
  L 1017.49 159.00
  A 0.74 0.71 0.4 0 1 1018.23 159.72
  L 1017.92 173.91
  A 0.63 0.60 0.5 0 1 1017.29 174.50
  L 983.31 174.56
  A 0.51 0.51 0.0 0 0 982.80 175.07
  L 982.81 193.95
  A 0.50 0.49 0.0 0 0 983.31 194.44
  Z"
/>
<rect fill="#ffffff" x="1099.99" y="159.00" width="20.26" height="86.24" rx="0.27"/>
<rect fill="#ffffff" x="1479.53" y="159.00" width="20.22" height="86.26" rx="0.26"/>
<path fill="#1c3f79" d="
  M 1157.92 186.84
  C 1163.09 176.81 1173.80 172.92 1184.76 175.45
  C 1203.03 179.65 1206.18 201.77 1200.19 216.19
  C 1194.21 230.55 1173.54 233.89 1162.52 223.74
  C 1153.18 215.14 1152.40 197.54 1157.92 186.84
  Z"
/>
<path fill="#1c3f79" d="
  M 1316.90 182.15
  C 1325.27 172.09 1344.42 172.44 1352.56 182.27
  C 1359.08 190.13 1360.08 202.65 1357.57 212.27
  C 1353.92 226.25 1341.24 231.74 1327.86 228.49
  C 1307.87 223.62 1306.04 195.22 1316.90 182.15
  Z"
/>
<path fill="#1c3f79" d="
  M 1543.26 211.79
  L 1554.42 178.37
  A 0.33 0.33 45.1 0 1 1555.04 178.37
  L 1566.08 211.83
  A 0.33 0.33 81.0 0 1 1565.76 212.27
  L 1543.58 212.23
  A 0.33 0.33 9.4 0 1 1543.26 211.79
  Z"
/>
<path fill="#ffffff" d="
  M 994.51 296.05
  C 981.18 290.10 970.07 305.10 987.94 310.31
  Q 991.98 311.49 999.51 314.48
  C 1011.71 319.32 1015.04 330.90 1010.79 342.57
  C 1006.78 353.58 996.36 358.53 984.93 358.35
  Q 971.53 358.14 959.85 349.17
  A 1.08 1.07 -55.7 0 1 959.59 347.77
  C 961.79 344.10 965.02 336.22 970.09 338.75
  C 976.49 341.93 988.06 348.60 994.30 341.01
  C 997.12 337.58 996.20 331.60 991.85 329.37
  C 984.31 325.52 974.65 325.10 968.30 319.15
  C 962.14 313.38 960.69 304.44 963.40 296.15
  C 969.39 277.78 998.52 276.55 1010.89 288.64
  A 0.76 0.74 34.0 0 1 1011.06 289.46
  Q 1009.07 294.17 1006.05 298.33
  Q 1004.73 300.15 1002.62 299.37
  Q 998.61 297.88 994.51 296.05
  Z"
/>
<path fill="#ffffff" d="
  M 1092.19 358.31
  C 1066.93 357.63 1050.46 335.09 1055.86 310.58
  C 1064.85 269.73 1126.54 271.12 1133.25 312.52
  C 1137.62 339.53 1118.85 359.03 1092.19 358.31
  Z
  M 1115.3201 314.7211
  A 19.20 19.20 0.0 0 0 1095.9200 295.7232
  L 1092.4602 295.7594
  A 19.20 19.20 0.0 0 0 1073.4623 315.1594
  L 1073.5599 324.4789
  A 19.20 19.20 0.0 0 0 1092.9600 343.4768
  L 1096.4198 343.4406
  A 19.20 19.20 0.0 0 0 1115.4177 324.0406
  L 1115.3201 314.7211
  Z"
/>
<path fill="#ffffff" d="
  M 803.46 315.80
  Q 810.35 301.09 817.50 286.50
  Q 819.93 281.53 824.75 281.52
  Q 831.62 281.50 838.75 281.50
  Q 839.54 281.50 839.14 282.19
  Q 826.49 303.98 813.69 325.94
  C 811.73 329.30 812.00 330.25 812.00 334.76
  Q 812.00 345.68 812.00 357.08
  A 0.67 0.67 89.9 0 1 811.33 357.75
  L 794.91 357.75
  A 0.66 0.66 89.9 0 1 794.25 357.09
  L 794.25 330.09
  A 4.88 4.79 30.2 0 0 793.58 327.64
  L 766.84 281.89
  Q 766.61 281.50 767.06 281.50
  Q 771.49 281.50 775.96 281.50
  C 782.29 281.50 786.39 280.74 788.79 286.46
  C 792.94 296.36 798.27 306.14 803.03 315.80
  Q 803.25 316.25 803.46 315.80
  Z"
/>
<path fill="#ffffff" d="
  M 886.81 328.81
  L 886.75 357.23
  A 0.52 0.51 90.0 0 1 886.24 357.75
  L 869.67 357.75
  A 0.94 0.93 -89.4 0 1 868.74 356.79
  Q 869.18 340.59 868.93 324.58
  C 868.77 313.90 869.28 301.02 868.79 289.25
  Q 868.65 286.12 869.11 282.04
  A 0.61 0.60 -86.8 0 1 869.71 281.50
  L 917.50 281.50
  A 0.50 0.50 0.0 0 1 918.00 282.00
  L 918.00 294.70
  A 0.56 0.55 0.0 0 1 917.44 295.25
  L 887.56 295.31
  A 0.51 0.50 -0.0 0 0 887.05 295.81
  L 887.05 313.69
  A 0.52 0.50 0.0 0 0 887.57 314.19
  L 912.23 314.25
  A 0.52 0.51 -0.0 0 1 912.75 314.76
  L 912.75 327.50
  A 0.70 0.69 -0.4 0 1 912.06 328.19
  L 887.31 328.31
  A 0.50 0.50 0.0 0 0 886.81 328.81
  Z"
/>
<rect fill="#ffffff" x="930.75" y="281.50" width="17.76" height="76.22" rx="0.27"/>
<rect fill="#ffffff" x="1024.75" y="281.50" width="18.00" height="76.20" rx="0.58"/>
<path fill="#ffffff" d="
  M 1156.69 295.56
  L 1136.88 295.51
  A 0.89 0.88 0.3 0 1 1136.00 294.63
  L 1136.00 282.19
  A 0.69 0.69 0.3 0 1 1136.69 281.50
  L 1195.95 281.50
  A 0.56 0.55 90.0 0 1 1196.50 282.06
  L 1196.55 295.07
  A 0.49 0.48 -0.6 0 1 1196.06 295.56
  L 1175.93 295.68
  A 0.54 0.52 -88.2 0 0 1175.41 296.19
  C 1174.37 316.30 1175.33 336.81 1175.01 357.00
  A 0.54 0.54 -1.1 0 1 1174.50 357.53
  Q 1166.25 358.06 1158.00 357.53
  A 0.53 0.52 1.8 0 1 1157.50 357.01
  C 1157.60 340.90 1157.19 324.79 1157.53 308.69
  Q 1157.66 302.37 1157.22 296.05
  A 0.53 0.52 -1.7 0 0 1156.69 295.56
  Z"
/>
<path fill="#ffffff" d="
  M 1224.32 343.94
  L 1253.93 344.00
  A 0.82 0.78 -0.0 0 1 1254.75 344.78
  L 1254.83 357.06
  A 0.53 0.51 -0.0 0 1 1254.30 357.57
  L 1206.59 357.74
  A 0.78 0.77 89.6 0 1 1205.81 356.96
  L 1206.06 282.06
  A 0.51 0.50 -0.0 0 1 1206.57 281.56
  L 1253.97 281.50
  A 0.69 0.67 86.7 0 1 1254.64 282.11
  Q 1255.32 288.93 1254.74 294.70
  A 0.55 0.54 -87.1 0 1 1254.20 295.19
  L 1224.31 295.25
  A 0.56 0.55 -0.0 0 0 1223.75 295.80
  L 1223.75 312.19
  A 0.56 0.56 90.0 0 0 1224.31 312.75
  L 1247.06 312.75
  A 0.69 0.68 0.0 0 1 1247.75 313.43
  L 1247.70 325.45
  A 0.50 0.49 -0.0 0 1 1247.20 325.94
  L 1224.53 325.99
  A 0.78 0.77 -0.4 0 0 1223.76 326.76
  L 1223.81 343.44
  A 0.51 0.50 0.0 0 0 1224.32 343.94
  Z"
/>
<path fill="#ffffff" d="
  M 1307.67 326.02
  Q 1312.48 329.54 1315.44 334.76
  C 1319.70 342.27 1324.39 349.57 1328.84 357.08
  A 0.43 0.43 74.2 0 1 1328.48 357.73
  Q 1319.37 357.91 1311.25 357.50
  Q 1308.19 357.35 1306.29 353.87
  Q 1300.63 343.51 1294.61 333.37
  C 1292.13 329.18 1289.91 329.01 1285.34 329.72
  A 0.99 0.99 85.5 0 0 1284.50 330.70
  L 1284.50 357.20
  A 0.55 0.55 89.9 0 1 1283.95 357.75
  L 1267.57 357.69
  A 0.54 0.54 88.3 0 1 1267.03 357.18
  Q 1266.72 352.97 1266.82 348.75
  C 1267.32 326.71 1267.00 304.50 1267.00 282.15
  A 0.63 0.63 -0.5 0 1 1267.62 281.52
  Q 1284.14 281.20 1299.50 282.00
  C 1325.52 283.36 1330.87 315.96 1307.73 325.51
  Q 1307.25 325.71 1307.67 326.02
  Z
  M 1304.50 308.25
  C 1306.83 294.56 1294.72 294.98 1285.65 294.74
  A 0.90 0.89 -89.1 0 0 1284.74 295.63
  L 1284.56 316.46
  A 0.75 0.73 -88.4 0 0 1285.25 317.21
  C 1292.69 317.60 1302.88 317.74 1304.50 308.25
  Z"
/>
<path fill="#ffffff" d="
  M 1384.45 340.56
  L 1357.06 340.56
  A 0.74 0.72 -79.5 0 0 1356.38 341.04
  Q 1353.95 347.58 1351.69 354.19
  C 1349.98 359.19 1337.22 357.90 1333.00 357.54
  A 0.38 0.37 12.6 0 1 1332.67 357.04
  L 1361.62 281.98
  A 0.77 0.74 9.9 0 1 1362.33 281.50
  L 1379.13 281.50
  A 0.99 0.98 -10.3 0 1 1380.05 282.13
  L 1409.01 357.00
  A 0.54 0.53 79.9 0 1 1408.51 357.73
  L 1394.23 357.50
  Q 1391.15 357.45 1390.01 354.36
  L 1385.11 341.03
  A 0.71 0.70 79.9 0 0 1384.45 340.56
  Z
  M 1360.59 328.02
  A 0.32 0.32 -80.4 0 0 1360.89 328.45
  L 1380.50 328.55
  A 0.32 0.32 -9.1 0 0 1380.81 328.13
  L 1371.15 299.05
  A 0.32 0.32 45.4 0 0 1370.55 299.04
  L 1360.59 328.02
  Z"
/>
<path fill="#ffffff" d="
  M 1435.08 333.07
  L 1435.24 357.12
  A 0.64 0.63 -0.0 0 1 1434.60 357.75
  L 1418.07 357.69
  A 0.51 0.50 0.0 0 1 1417.56 357.19
  L 1417.56 282.07
  A 0.52 0.51 89.4 0 1 1418.06 281.55
  Q 1438.10 281.06 1451.50 282.00
  C 1463.82 282.86 1473.69 291.31 1474.52 304.02
  C 1475.94 325.87 1459.85 333.00 1441.25 332.23
  Q 1438.39 332.11 1435.55 332.49
  A 0.58 0.55 85.5 0 0 1435.08 333.07
  Z
  M 1453.06 297.44
  C 1449.32 294.46 1440.89 294.32 1435.76 294.99
  A 0.60 0.59 86.1 0 0 1435.25 295.58
  L 1435.25 318.24
  A 0.49 0.49 1.2 0 0 1435.72 318.73
  C 1440.81 318.91 1448.73 319.31 1452.66 316.67
  C 1458.52 312.74 1458.46 301.73 1453.06 297.44
  Z"
/>
<rect fill="#ffffff" x="1487.74" y="281.50" width="17.76" height="76.12" rx="0.27"/>
<path fill="#ffffff" d="
  M 1567.94 340.79
  L 1540.17 340.53
  A 0.83 0.80 -80.1 0 0 1539.39 341.10
  Q 1537.25 347.37 1535.14 353.21
  C 1532.74 359.85 1521.64 357.79 1516.07 357.70
  A 0.36 0.36 -79.1 0 1 1515.74 357.21
  L 1544.82 281.99
  A 0.76 0.75 9.9 0 1 1545.53 281.50
  L 1562.44 281.56
  A 0.73 0.72 -10.5 0 1 1563.12 282.02
  L 1592.16 356.91
  A 0.59 0.58 -11.4 0 1 1591.63 357.70
  Q 1584.47 358.00 1578.19 357.44
  C 1574.51 357.12 1573.66 355.98 1572.50 352.75
  Q 1570.46 347.04 1568.59 341.28
  A 0.72 0.69 81.0 0 0 1567.94 340.79
  Z
  M 1553.99 298.29
  L 1543.97 327.97
  A 0.37 0.36 9.5 0 0 1544.32 328.45
  L 1563.57 328.33
  A 0.37 0.35 80.5 0 0 1563.90 327.85
  L 1554.35 298.30
  Q 1554.17 297.75 1553.99 298.29
  Z"
/>
<path fill="#1c3f77" d="
  M 1285.65 294.74
  C 1294.72 294.98 1306.83 294.56 1304.50 308.25
  C 1302.88 317.74 1292.69 317.60 1285.25 317.21
  A 0.75 0.73 -88.4 0 1 1284.56 316.46
  L 1284.74 295.63
  A 0.90 0.89 -89.1 0 1 1285.65 294.74
  Z"
/>
<path fill="#1c3f77" d="
  M 1453.06 297.44
  C 1458.46 301.73 1458.52 312.74 1452.66 316.67
  C 1448.73 319.31 1440.81 318.91 1435.72 318.73
  A 0.49 0.49 1.2 0 1 1435.25 318.24
  L 1435.25 295.58
  A 0.60 0.59 86.1 0 1 1435.76 294.99
  C 1440.89 294.32 1449.32 294.46 1453.06 297.44
  Z"
/>
<rect fill="#1c3f79" x="-20.93" y="-23.86" transform="translate(1094.44,319.60) rotate(-0.6)" width="41.86" height="47.72" rx="19.20"/>
<path fill="#1c3f79" d="
  M 1553.99 298.29
  Q 1554.17 297.75 1554.35 298.30
  L 1563.90 327.85
  A 0.37 0.35 80.5 0 1 1563.57 328.33
  L 1544.32 328.45
  A 0.37 0.36 9.5 0 1 1543.97 327.97
  L 1553.99 298.29
  Z"
/>
<path fill="#1c3f77" d="
  M 1360.59 328.02
  L 1370.55 299.04
  A 0.32 0.32 45.6 0 1 1371.15 299.05
  L 1380.81 328.13
  A 0.32 0.32 -9.1 0 1 1380.50 328.55
  L 1360.89 328.45
  A 0.32 0.32 -80.4 0 1 1360.59 328.02
  Z"
/>
<ellipse fill="#1c3f77" cx="0.00" cy="0.00" transform="translate(154.54,359.59) rotate(0.3)" rx="10.80" ry="9.52"/>
<path fill="#1c3f77" d="
  M 101.81 421.94
  C 109.67 422.02 123.51 420.65 129.54 423.54
  Q 136.46 426.87 136.31 436.87
  A 0.64 0.64 -89.5 0 1 135.67 437.50
  L 81.67 437.50
  A 0.61 0.61 -89.3 0 1 81.06 436.89
  L 81.31 354.82
  A 0.51 0.49 90.0 0 1 81.80 354.31
  L 100.70 354.25
  A 0.56 0.55 90.0 0 1 101.25 354.81
  L 101.31 421.45
  A 0.50 0.49 0.0 0 0 101.81 421.94
  Z"
/>
<path fill="#1c3f77" d="
  M 278.99 436.24
  C 259.20 443.53 237.17 434.07 234.50 411.75
  C 231.56 387.17 248.73 369.02 274.00 375.75
  C 287.44 379.33 294.73 396.30 292.00 409.00
  C 291.45 411.56 288.41 412.43 285.84 412.45
  Q 270.74 412.54 254.75 412.50
  A 0.58 0.58 82.2 0 0 254.19 413.24
  C 258.23 426.64 272.91 426.30 281.64 418.10
  A 0.52 0.52 -0.0 0 1 282.36 418.10
  Q 286.80 422.51 290.45 427.59
  A 0.64 0.61 47.6 0 1 290.43 428.37
  Q 285.74 433.75 278.99 436.24
  Z
  M 267.13 389.98
  C 259.16 387.51 256.57 392.62 254.14 399.35
  A 0.85 0.82 -80.4 0 0 254.92 400.48
  L 272.69 400.22
  A 0.63 0.61 -85.4 0 0 273.28 399.70
  C 274.10 394.78 271.88 391.46 267.13 389.98
  Z"
/>
<path fill="#1c3f77" d="
  M 332.71 421.03
  C 334.48 410.90 299.57 415.66 298.85 394.55
  C 298.18 374.93 323.58 371.87 337.29 376.38
  Q 349.29 380.32 351.56 393.10
  A 1.18 1.18 -6.6 0 1 350.46 394.49
  Q 339.68 395.04 330.81 389.44
  C 319.57 382.33 309.66 395.80 324.80 399.02
  C 331.24 400.39 339.77 402.15 345.00 406.29
  C 351.80 411.66 353.44 421.64 348.59 428.52
  C 340.79 439.57 322.04 440.68 310.56 435.94
  Q 299.12 431.21 296.73 418.88
  A 0.96 0.96 81.8 0 1 297.58 417.74
  Q 305.75 416.95 312.92 420.55
  C 318.65 423.43 320.14 426.86 327.74 425.43
  C 330.09 424.98 332.29 423.50 332.71 421.03
  Z"
/>
<path fill="#1c3f77" d="
  M 145.59 375.54
  C 154.44 375.19 161.98 379.81 163.88 388.46
  Q 164.25 390.13 164.24 398.58
  Q 164.22 417.70 164.31 436.82
  A 0.51 0.50 -90.0 0 1 163.81 437.33
  L 145.87 437.49
  A 0.88 0.87 90.0 0 1 145.00 436.61
  L 145.00 376.15
  A 0.61 0.61 -1.0 0 1 145.59 375.54
  Z"
/>
<path fill="#1c3f77" d="
  M 201.36 412.76
  C 202.99 406.48 204.37 401.32 206.15 393.67
  C 209.39 379.77 216.59 374.74 230.88 375.56
  A 0.33 0.32 -79.7 0 1 231.17 375.99
  L 211.09 436.96
  A 0.70 0.69 -80.7 0 1 210.43 437.44
  L 191.56 437.45
  A 0.71 0.67 80.5 0 1 190.91 436.96
  L 171.09 376.28
  A 0.60 0.60 -9.3 0 1 171.65 375.50
  C 182.83 375.25 191.65 377.72 194.79 389.69
  Q 197.78 401.06 200.56 412.75
  Q 200.95 414.37 201.36 412.76
  Z"
/>
<path fill="#ffffff" d="
  M 267.13 389.98
  C 271.88 391.46 274.10 394.78 273.28 399.70
  A 0.63 0.61 -85.4 0 1 272.69 400.22
  L 254.92 400.48
  A 0.85 0.82 -80.4 0 1 254.14 399.35
  C 256.57 392.62 259.16 387.51 267.13 389.98
  Z"
/>
</svg>
